<svg width="110" height="110" viewBox="0 0 110 110" fill="none" xmlns="http://www.w3.org/2000/svg">
<path d="M96.25 61.1417C93.3625 60.1333 90.2917 59.5833 87.0833 59.5833C79.7899 59.5833 72.7952 62.4807 67.6379 67.6379C62.4807 72.7952 59.5833 79.7899 59.5833 87.0833C59.5833 88.6417 59.7208 90.1542 59.95 91.6667H13.75C11.3189 91.6667 8.98728 90.7009 7.2682 88.9818C5.54911 87.2627 4.58334 84.9312 4.58334 82.5V27.5C4.58334 22.4125 8.66251 18.3333 13.75 18.3333H87.0833C89.5145 18.3333 91.8461 19.2991 93.5652 21.0182C95.2842 22.7373 96.25 25.0689 96.25 27.5V61.1417ZM107.708 77.9167L84.7917 100.833L68.75 84.7917L75.625 77.9167L84.7917 87.0833L100.833 71.0417L107.708 77.9167ZM13.75 27.5V36.6667L50.4167 59.5833L87.0833 36.6667V27.5L50.4167 50.4167L13.75 27.5Z" fill="#FDBE33"/>
</svg>
