<svg width="100" height="100" viewBox="0 0 100 100" fill="none" xmlns="http://www.w3.org/2000/svg">
<g clip-path="url(#clip0)">
<path fill-rule="evenodd" clip-rule="evenodd" d="M0 71.4874L24.6125 80.6624V6.63744L0 -0.093811V71.4874Z" fill="#FDBE33"/>
<path fill-rule="evenodd" clip-rule="evenodd" d="M71.9126 50.0313C63.4064 50.0313 56.5189 57.5563 56.5189 66.8438C56.5189 69.2438 56.9939 71.5125 57.8126 73.5875L71.9626 99.5375L85.9939 73.5875C86.8314 71.5125 87.2939 69.2438 87.2939 66.8438C87.2939 57.5563 80.4001 50.0313 71.9126 50.0313ZM72.0126 75.2875C69.5262 75.2892 67.141 74.3031 65.3817 72.5461C63.6223 70.7891 62.633 68.4052 62.6314 65.9188C62.6297 63.4324 63.6158 61.0471 65.3728 59.2878C67.1298 57.5285 69.5137 56.5392 72.0001 56.5375C73.2313 56.5367 74.4505 56.7784 75.5882 57.2488C76.726 57.7191 77.7599 58.409 78.6311 59.279C79.5022 60.149 80.1934 61.182 80.6653 62.3191C81.1372 63.4562 81.3805 64.6751 81.3814 65.9063C81.3822 67.1374 81.1405 68.3567 80.6701 69.4944C80.1997 70.6322 79.5099 71.6661 78.6399 72.5372C77.7699 73.4084 76.7369 74.0996 75.5998 74.5715C74.4627 75.0434 73.2437 75.2867 72.0126 75.2875Z" fill="#FDBE33"/>
<path fill-rule="evenodd" clip-rule="evenodd" d="M100 6.05632L68.9438 0.256317V43.0938C69.9188 42.9688 70.8938 42.8063 71.9125 42.8063C84.2688 42.8063 94.275 52.4376 94.275 64.3251C94.275 67.4001 93.6 70.3001 92.3938 72.9626L89.9875 76.8938L100 81.2501V6.05632Z" fill="#FDBE33"/>
<path fill-rule="evenodd" clip-rule="evenodd" d="M49.5375 64.3251C49.5375 55.7626 54.775 48.4251 62.3063 44.9626V1.03757L31.4438 6.63757V80.6626L54.45 77.8563L51.4188 72.9626C50.183 70.2505 49.5416 67.3054 49.5375 64.3251Z" fill="#FDBE33"/>
</g>
<defs>
<clipPath id="clip0">
<rect width="100" height="100" fill="white"/>
</clipPath>
</defs>
</svg>
