<svg width="40" height="40" viewBox="0 0 40 40" fill="none" xmlns="http://www.w3.org/2000/svg">
<path d="M30.4501 10.0002C32.1334 13.6168 31.7501 17.8835 29.9001 21.3502C28.3334 24.1668 26.0834 26.5502 24.1668 29.1668C23.3334 30.3335 22.5001 31.5835 21.8834 32.9335C21.6668 33.3835 21.5168 33.8502 21.3501 34.3168C21.1834 34.7835 21.0334 35.2502 20.8834 35.7168C20.7334 36.1502 20.5501 36.6668 20.0001 36.6668C19.3501 36.6668 19.1668 35.9335 19.0334 35.4335C18.6334 34.2168 18.2334 33.0502 17.6168 31.9335C16.9168 30.6168 16.0334 29.4002 15.1334 28.2168L30.4501 10.0002ZM15.2001 14.0335L9.70009 20.5668C10.7168 22.7168 12.2334 24.5502 13.6834 26.3835C14.0334 26.8002 14.3834 27.2335 14.7168 27.6835L21.6668 19.4502L21.6001 19.4668C19.1668 20.3002 16.4668 19.0668 15.5001 16.6668C15.3668 16.3835 15.2668 16.0502 15.2001 15.7168C15.1084 15.1651 15.1084 14.6019 15.2001 14.0502V14.0335ZM10.9668 7.70016L10.9501 7.71683C8.25009 11.1335 7.78342 15.8835 9.40009 19.9002L16.0501 12.0002L15.9668 11.9168L10.9668 7.70016ZM23.7001 3.9335L18.3334 10.2835L18.4001 10.2668C20.6334 9.50016 23.1334 10.4668 24.2668 12.5002C24.5168 12.9668 24.7168 13.4668 24.7834 13.9668C24.8834 14.6002 24.9168 15.0502 24.8001 15.6668V15.6835L30.1334 9.35016C28.7393 6.81581 26.452 4.89091 23.7168 3.95016L23.7001 3.9335ZM16.4834 11.4835L23.0001 3.7335L22.9334 3.71683C21.9668 3.46683 20.9834 3.3335 20.0001 3.3335C16.7168 3.3335 13.6168 4.75016 11.4168 7.1835L11.3834 7.20016L16.4834 11.4835Z" fill="white"/>
</svg>
