<svg width="100" height="100" viewBox="0 0 100 100" fill="none" xmlns="http://www.w3.org/2000/svg">
<path d="M87.5 93.3333V96.6667C87.5 97.5694 87.1908 98.3507 86.5723 99.0104C85.9538 99.6701 85.2214 100 84.375 100H78.125C77.2786 100 76.5462 99.6701 75.9277 99.0104C75.3092 98.3507 75 97.5694 75 96.6667V93.3333H25V96.6667C25 97.5694 24.6908 98.3507 24.0723 99.0104C23.4538 99.6701 22.7214 100 21.875 100H15.625C14.7786 100 14.0462 99.6701 13.4277 99.0104C12.8092 98.3507 12.5 97.5694 12.5 96.6667V93.3333C9.04948 93.3333 6.10352 92.0312 3.66211 89.4271C1.2207 86.8229 0 83.6805 0 80V73.3333C0 68.4722 1.18815 63.4549 3.56445 58.2812C5.94076 53.1076 9.09831 48.7674 13.0371 45.2604C16.9759 41.7535 20.9635 40 25 40C26.6927 40 28.1576 39.3576 29.3945 38.0729C30.6315 36.7882 31.25 35.2083 31.25 33.3333V26.6667C31.25 24.8611 31.8522 23.2986 33.0566 21.9792C34.2611 20.6597 35.7422 20 37.5 20C39.2578 20 40.7389 20.6597 41.9434 21.9792C43.1478 23.2986 43.75 24.8611 43.75 26.6667H56.25C56.25 24.8611 56.8522 23.2986 58.0566 21.9792C59.2611 20.6597 60.7422 20 62.5 20C64.2578 20 65.7389 20.6597 66.9434 21.9792C68.1478 23.2986 68.75 24.8611 68.75 26.6667V33.3333C68.75 35.2083 69.3522 36.7882 70.5566 38.0729C71.7611 39.3576 73.2422 40 75 40C79.0365 40 83.0241 41.7535 86.9629 45.2604C90.9017 48.7674 94.0592 53.1076 96.4355 58.2812C98.8119 63.4549 100 68.4722 100 73.3333V80C100 83.6805 98.7793 86.8229 96.3379 89.4271C93.8965 92.0312 90.9505 93.3333 87.5 93.3333ZM50 46.6667C44.7917 46.6667 40.3646 48.6285 36.7188 52.5521C33.0729 56.4757 31.25 61.1979 31.25 66.7188C31.25 72.2396 33.0729 76.9444 36.7188 80.8333C40.3646 84.7222 44.7917 86.6667 50 86.6667C55.2083 86.6667 59.6354 84.7222 63.2812 80.8333C66.9271 76.9444 68.75 72.2222 68.75 66.6667C68.75 61.1111 66.9271 56.3889 63.2812 52.5C59.6354 48.6111 55.2083 46.6667 50 46.6667ZM50 80C46.5495 80 43.6035 78.6979 41.1621 76.0938C38.7207 73.4896 37.5 70.3472 37.5 66.6667C37.5 62.9861 38.7207 59.8438 41.1621 57.2396C43.6035 54.6354 46.5495 53.3333 50 53.3333C53.4505 53.3333 56.3965 54.6354 58.8379 57.2396C61.2793 59.8438 62.5 62.9861 62.5 66.6667C62.5 70.3472 61.2793 73.4896 58.8379 76.0938C56.3965 78.6979 53.4505 80 50 80ZM87.5 33.3333H84.3262L81.543 33.2292L78.8574 32.9167L76.9043 32.3438L75.4395 31.4062L75 30V19.2708C73.3724 17.7431 70.1172 16.3715 65.2344 15.1562C60.3516 13.941 55.2734 13.3333 50 13.3333C44.7266 13.3333 39.6484 13.941 34.7656 15.1562C29.8828 16.3715 26.6276 17.7431 25 19.2708V30C25 30.5556 24.8535 31.0243 24.5605 31.4062C24.2676 31.7882 23.7793 32.1007 23.0957 32.3438C22.4121 32.5868 21.7611 32.7778 21.1426 32.9167C20.5241 33.0556 19.6289 33.1597 18.457 33.2292C17.2852 33.2986 16.3574 33.3333 15.6738 33.3333H9.08203L6.25 33.2292L3.61328 32.9167L1.75781 32.3438L0.390625 31.4062L0 30V20.9375C0 16.6319 2.26237 12.8646 6.78711 9.63542C11.3118 6.40625 17.3177 3.99306 24.8047 2.39583C32.2917 0.798611 40.6901 0 50 0C59.3099 0 67.7083 0.798611 75.1953 2.39583C82.6823 3.99306 88.6881 6.40625 93.2129 9.63542C97.7376 12.8646 100 16.6319 100 20.9375V30C100 30.5556 99.8698 31.0243 99.6094 31.4062C99.349 31.7882 98.8932 32.1007 98.2422 32.3438C97.5911 32.5868 96.9727 32.7778 96.3867 32.9167C95.8008 33.0556 94.9219 33.1597 93.75 33.2292C92.5781 33.2986 91.6341 33.3333 90.918 33.3333H87.5Z" fill="#FDBE33"/>
</svg>
